<mxfile host="app.diagrams.net" modified="2021-08-07T04:41:48.611Z" agent="5.0 (Windows NT 10.0; Win64; x64) AppleWebKit/537.36 (KHTML, like Gecko) Chrome/92.0.4515.131 Safari/537.36" etag="2A3znPCepdCejZGPqKYk" version="14.9.5" type="github">
  <diagram id="iVAqUd6_5Ihj0nqu-VKG" name="Page-1">
    <mxGraphModel dx="1848" dy="541" grid="1" gridSize="10" guides="1" tooltips="1" connect="1" arrows="1" fold="1" page="1" pageScale="1" pageWidth="827" pageHeight="1169" math="0" shadow="0">
      <root>
        <mxCell id="0" />
        <mxCell id="1" parent="0" />
        <mxCell id="hOTAWmuhcEJ8VzINE2fI-1" value="KHÁCH HÀNG" style="shape=umlActor;verticalLabelPosition=bottom;verticalAlign=top;html=1;outlineConnect=0;" vertex="1" parent="1">
          <mxGeometry x="20" y="30" width="30" height="60" as="geometry" />
        </mxCell>
        <mxCell id="hOTAWmuhcEJ8VzINE2fI-2" value="" style="ellipse;whiteSpace=wrap;html=1;" vertex="1" parent="1">
          <mxGeometry x="130" width="120" height="80" as="geometry" />
        </mxCell>
        <mxCell id="hOTAWmuhcEJ8VzINE2fI-3" value="ĐẶT PHÒNG" style="text;html=1;strokeColor=none;fillColor=none;align=center;verticalAlign=middle;whiteSpace=wrap;rounded=0;" vertex="1" parent="1">
          <mxGeometry x="140" y="30" width="100" height="20" as="geometry" />
        </mxCell>
        <mxCell id="hOTAWmuhcEJ8VzINE2fI-4" value="" style="endArrow=none;html=1;" edge="1" parent="1" source="hOTAWmuhcEJ8VzINE2fI-1">
          <mxGeometry width="50" height="50" relative="1" as="geometry">
            <mxPoint x="410" y="260" as="sourcePoint" />
            <mxPoint x="120" y="40" as="targetPoint" />
            <Array as="points" />
          </mxGeometry>
        </mxCell>
        <mxCell id="hOTAWmuhcEJ8VzINE2fI-5" value="" style="ellipse;whiteSpace=wrap;html=1;" vertex="1" parent="1">
          <mxGeometry x="130" y="90" width="120" height="80" as="geometry" />
        </mxCell>
        <mxCell id="hOTAWmuhcEJ8VzINE2fI-6" value="ĐĂNG NHẬP" style="text;html=1;strokeColor=none;fillColor=none;align=center;verticalAlign=middle;whiteSpace=wrap;rounded=0;" vertex="1" parent="1">
          <mxGeometry x="140" y="120" width="100" height="20" as="geometry" />
        </mxCell>
        <mxCell id="hOTAWmuhcEJ8VzINE2fI-7" value="" style="ellipse;whiteSpace=wrap;html=1;" vertex="1" parent="1">
          <mxGeometry x="-60" y="170" width="120" height="80" as="geometry" />
        </mxCell>
        <mxCell id="hOTAWmuhcEJ8VzINE2fI-8" value="QUẢN LÝ THÔNG TIN CÁ NHÂN" style="text;html=1;strokeColor=none;fillColor=none;align=center;verticalAlign=middle;whiteSpace=wrap;rounded=0;" vertex="1" parent="1">
          <mxGeometry x="-50" y="200" width="110" height="20" as="geometry" />
        </mxCell>
        <mxCell id="hOTAWmuhcEJ8VzINE2fI-9" value="" style="ellipse;whiteSpace=wrap;html=1;" vertex="1" parent="1">
          <mxGeometry x="110" y="220" width="120" height="80" as="geometry" />
        </mxCell>
        <mxCell id="hOTAWmuhcEJ8VzINE2fI-10" value="QUẢN LÝ ĐƠN ĐẶT PHÒNG CÁ NHÂN" style="text;html=1;strokeColor=none;fillColor=none;align=center;verticalAlign=middle;whiteSpace=wrap;rounded=0;" vertex="1" parent="1">
          <mxGeometry x="120" y="250" width="100" height="20" as="geometry" />
        </mxCell>
        <mxCell id="hOTAWmuhcEJ8VzINE2fI-13" value="" style="endArrow=none;html=1;" edge="1" parent="1">
          <mxGeometry width="50" height="50" relative="1" as="geometry">
            <mxPoint x="50" y="73.84615384615381" as="sourcePoint" />
            <mxPoint x="130" y="110" as="targetPoint" />
            <Array as="points">
              <mxPoint x="130" y="110" />
            </Array>
          </mxGeometry>
        </mxCell>
        <mxCell id="hOTAWmuhcEJ8VzINE2fI-14" value="" style="endArrow=none;html=1;" edge="1" parent="1">
          <mxGeometry width="50" height="50" relative="1" as="geometry">
            <mxPoint x="50" y="180" as="sourcePoint" />
            <mxPoint x="130" y="150" as="targetPoint" />
          </mxGeometry>
        </mxCell>
        <mxCell id="hOTAWmuhcEJ8VzINE2fI-15" value="" style="endArrow=none;html=1;entryX=0.417;entryY=1;entryDx=0;entryDy=0;entryPerimeter=0;" edge="1" parent="1" target="hOTAWmuhcEJ8VzINE2fI-5">
          <mxGeometry width="50" height="50" relative="1" as="geometry">
            <mxPoint x="170" y="210" as="sourcePoint" />
            <mxPoint x="200" y="170" as="targetPoint" />
          </mxGeometry>
        </mxCell>
      </root>
    </mxGraphModel>
  </diagram>
</mxfile>
